# xmcd
#
# Track frame offsets:
#	150
#	11619
#	23288
#	40472
#	56864
#	69281
#	82536
#	118595
#	127507
#	142230
#	159810
#	172777
#	189198
#	209085
#	233638
#	247776
#	257441
#	274457
#	295712
#	309533
#	320746
#	329298
#	339815
#
# Disc length: 4814 seconds
#
# Revision: 3
# Processed by: cddbd v1.5.1PL2 Copyright (c) Steve Scherf et al.
# Submitted via: audiograbber 1.83.01
#
DISCID=2b12cc17
DTITLE=Michael Flatley and Ronan Hardiman - Michael Flatley's Feet Of Flames and Lo
DTITLE=rd Of The Dance
DYEAR=1998
DGENRE=Folk
TTITLE0=High Priests
TTITLE1=Dance Of Love
TTITLE2=Carrickfergus
TTITLE3=Duelling Violins
TTITLE4=Whispering Wind
TTITLE5=Dance Above The Rainbow
TTITLE6=The Dawning
TTITLE7=Spirit's Lament
TTITLE8=I Dreamt I Dwelt
TTITLE9=Strings Of Fire
TTITLE10=Hell's Kitchen
TTITLE11=Celtic Fire (Live)
TTITLE12=Cry Of The Celts
TTITLE13=Celtic Dream
TTITLE14=Warriors
TTITLE15=Gypsy
TTITLE16=Breakout
TTITLE17=The Lord Of The Dance
TTITLE18=Fiery Nights
TTITLE19=Nightmare
TTITLE20=Victory
TTITLE21=Cry Of The Celts
TTITLE22=The Lord Of The Dance
EXTD=
EXTT0=
EXTT1=
EXTT2=
EXTT3=
EXTT4=
EXTT5=
EXTT6=
EXTT7=
EXTT8=
EXTT9=
EXTT10=
EXTT11=
EXTT12=
EXTT13=
EXTT14=
EXTT15=
EXTT16=
EXTT17=
EXTT18=
EXTT19=
EXTT20=
EXTT21=
EXTT22=
PLAYORDER=
